{
    "asset" : {
        "generator" : "Khronos glTF Blender I/O v1.2.20",
        "version" : "2.0"
    },
    "scene" : 0,
    "scenes" : [
        {
            "name" : "Scene",
            "nodes" : [
                0
            ]
        }
    ],
    "nodes" : [
        {
            "mesh" : 0,
            "name" : "Beehive"
        }
    ],
    "materials" : [
        {
            "pbrMetallicRoughness" : {
                "roughnessFactor" : 0,
                "metallicFactor" : 0,
                "baseColorTexture" : {
                    "index" : 0,
                    "texCoord" : 0
                }
            },
            "name" : "BeeHive"
        }
    ],
    "meshes" : [
        {
            "name" : "Beehive",
            "primitives" : [
                {
                    "material" : 0,
                    "indices" : 3,
                    "attributes" : {
                        "POSITION" : 0,
                        "TEXCOORD_0" : 1,
                        "NORMAL" : 2
                    }
                }
            ]
        }
    ],
    "textures" : [
        {
            "source" : 0
        }
    ],
    "images" : [
        {
            "name" : "hiveTex",
            "bufferView" : 4,
            "mimeType" : "image/png"
        }
    ],
    "accessors" : [
        {
            "bufferView" : 0,
            "type" : "VEC3",
            "max" : [
                0.5999221801757812,
                1.0223007202148438,
                1.5511131286621094
            ],
            "min" : [
                -0.59991455078125,
                -0.6982192993164062,
                0.3512725830078125
            ],
            "count" : 1905,
            "componentType" : 5126
        },
        {
            "count" : 1905,
            "type" : "VEC2",
            "bufferView" : 1,
            "componentType" : 5126
        },
        {
            "count" : 1905,
            "type" : "VEC3",
            "bufferView" : 2,
            "componentType" : 5126
        },
        {
            "count" : 10440,
            "type" : "SCALAR",
            "bufferView" : 3,
            "componentType" : 5123
        }
    ],
    "bufferViews" : [
        {
            "byteOffset" : 0,
            "buffer" : 0,
            "byteLength" : 22860
        },
        {
            "byteOffset" : 22860,
            "buffer" : 0,
            "byteLength" : 15240
        },
        {
            "byteOffset" : 38100,
            "buffer" : 0,
            "byteLength" : 22860
        },
        {
            "byteOffset" : 60960,
            "buffer" : 0,
            "byteLength" : 20880
        },
        {
            "byteOffset" : 81840,
            "buffer" : 0,
            "byteLength" : 49098
        }
    ],
    "buffers" : [
        {
            "byteLength" : 130940,
            "uri" : "data:application/octet-stream;base64,"
        }
    ]
}
