{
    "asset" : {
        "version" : "2.0",
        "generator" : "Khronos glTF Blender I/O v1.2.20"
    },
    "scene" : 0,
    "scenes" : [
        {
            "name" : "Scene",
            "nodes" : [
                1,
                2,
                3
            ]
        }
    ],
    "nodes" : [
        {
            "name" : "CandleFlames",
            "mesh" : 0
        },
        {
            "name" : "Candles",
            "children" : [
                0
            ],
            "mesh" : 1
        },
        {
            "name" : "Camera",
            "translation" : [
                0,
                13.239256858825684,
                14.180203437805176
            ],
            "rotation" : [
                0.39094024896621704,
                0,
                0,
                0.9204160571098328
            ]
        },
        {
            "name" : "Sun",
            "translation" : [
                0,
                7.39827823638916,
                6.803775787353516
            ],
            "rotation" : [
                0.4449038505554199,
                0,
                0,
                0.8955783247947693
            ]
        }
    ],
    "materials" : [
        {
            "name" : "CandleFlames",
            "pbrMetallicRoughness" : {
                "metallicFactor" : 0,
                "baseColorTexture" : {
                    "index" : 0,
                    "texCoord" : 0
                },
                "roughnessFactor" : 0.800000011920929
            },
            "doubleSided" : true
        },
        {
            "name" : "Candles",
            "pbrMetallicRoughness" : {
                "metallicFactor" : 0,
                "roughnessFactor" : 0.800000011920929,
                "baseColorFactor" : [
                    0.800000011920929,
                    0.800000011920929,
                    0.800000011920929,
                    1
                ]
            }
        }
    ],
    "meshes" : [
        {
            "primitives" : [
                {
                    "indices" : 3,
                    "material" : 0,
                    "attributes" : {
                        "NORMAL" : 0,
                        "POSITION" : 1,
                        "TEXCOORD_0" : 2
                    }
                }
            ],
            "name" : "Candles.001"
        },
        {
            "primitives" : [
                {
                    "indices" : 7,
                    "material" : 1,
                    "attributes" : {
                        "NORMAL" : 4,
                        "POSITION" : 5,
                        "TEXCOORD_0" : 6
                    }
                }
            ],
            "name" : "Candles"
        }
    ],
    "textures" : [
        {
            "source" : 0
        }
    ],
    "images" : [
        {
            "name" : "candleFlameTex",
            "mimeType" : "image/png",
            "bufferView" : 4
        }
    ],
    "accessors" : [
        {
            "bufferView" : 0,
            "componentType" : 5126,
            "type" : "VEC3",
            "count" : 168
        },
        {
            "componentType" : 5126,
            "type" : "VEC3",
            "count" : 168,
            "min" : [
                -0.7508926391601562,
                0.5072097778320312,
                -0.3293304443359375
            ],
            "bufferView" : 1,
            "max" : [
                0.6488494873046875,
                1.876190185546875,
                0.7497329711914062
            ]
        },
        {
            "bufferView" : 2,
            "componentType" : 5126,
            "type" : "VEC2",
            "count" : 168
        },
        {
            "bufferView" : 3,
            "componentType" : 5123,
            "type" : "SCALAR",
            "count" : 168
        },
        {
            "bufferView" : 5,
            "componentType" : 5126,
            "type" : "VEC3",
            "count" : 183
        },
        {
            "componentType" : 5126,
            "type" : "VEC3",
            "count" : 183,
            "min" : [
                -0.7123641967773438,
                -0.051122188568115234,
                -0.2907981872558594
            ],
            "bufferView" : 6,
            "max" : [
                0.61041259765625,
                1.4556427001953125,
                0.7112960815429688
            ]
        },
        {
            "bufferView" : 7,
            "componentType" : 5126,
            "type" : "VEC2",
            "count" : 183
        },
        {
            "bufferView" : 8,
            "componentType" : 5123,
            "type" : "SCALAR",
            "count" : 672
        }
    ],
    "bufferViews" : [
        {
            "buffer" : 0,
            "byteLength" : 2016,
            "byteOffset" : 0
        },
        {
            "buffer" : 0,
            "byteLength" : 2016,
            "byteOffset" : 2016
        },
        {
            "buffer" : 0,
            "byteLength" : 1344,
            "byteOffset" : 4032
        },
        {
            "buffer" : 0,
            "byteLength" : 336,
            "byteOffset" : 5376
        },
        {
            "buffer" : 0,
            "byteLength" : 7415,
            "byteOffset" : 5712
        },
        {
            "buffer" : 0,
            "byteLength" : 2196,
            "byteOffset" : 13128
        },
        {
            "buffer" : 0,
            "byteLength" : 2196,
            "byteOffset" : 15324
        },
        {
            "buffer" : 0,
            "byteLength" : 1464,
            "byteOffset" : 17520
        },
        {
            "buffer" : 0,
            "byteLength" : 1344,
            "byteOffset" : 18984
        }
    ],
    "buffers" : [
        {
            "uri" : "data:application/octet-stream;base64,",
            "byteLength" : 20328
        }
    ]
}
