{
    "asset" : {
        "generator" : "Khronos glTF Blender I/O v1.2.20",
        "version" : "2.0"
    },
    "scene" : 0,
    "scenes" : [
        {
            "name" : "Scene",
            "nodes" : [
                0
            ]
        }
    ],
    "nodes" : [
        {
            "mesh" : 0,
            "name" : "Ceiling"
        }
    ],
    "materials" : [
        {
            "pbrMetallicRoughness" : {
                "roughnessFactor" : 0,
                "metallicFactor" : 0,
                "baseColorTexture" : {
                    "index" : 0,
                    "texCoord" : 0
                }
            },
            "name" : "Ceiling"
        }
    ],
    "meshes" : [
        {
            "primitives" : [
                {
                    "indices" : 3,
                    "material" : 0,
                    "attributes" : {
                        "POSITION" : 0,
                        "TEXCOORD_0" : 1,
                        "NORMAL" : 2
                    }
                }
            ],
            "name" : "Ceiling"
        }
    ],
    "textures" : [
        {
            "source" : 0
        }
    ],
    "images" : [
        {
            "bufferView" : 4,
            "mimeType" : "image/jpeg",
            "name" : "rockTex"
        }
    ],
    "accessors" : [
        {
            "type" : "VEC3",
            "count" : 256,
            "componentType" : 5126,
            "min" : [
                -0.08515644073486328,
                -0.1186666488647461,
                -0.08515644073486328
            ],
            "bufferView" : 0,
            "max" : [
                2.0851593017578125,
                -0.03107476234436035,
                2.0851593017578125
            ]
        },
        {
            "componentType" : 5126,
            "type" : "VEC2",
            "bufferView" : 1,
            "count" : 256
        },
        {
            "componentType" : 5126,
            "type" : "VEC3",
            "bufferView" : 2,
            "count" : 256
        },
        {
            "componentType" : 5123,
            "type" : "SCALAR",
            "bufferView" : 3,
            "count" : 1350
        }
    ],
    "bufferViews" : [
        {
            "byteLength" : 3072,
            "byteOffset" : 0,
            "buffer" : 0
        },
        {
            "byteLength" : 2048,
            "byteOffset" : 3072,
            "buffer" : 0
        },
        {
            "byteLength" : 3072,
            "byteOffset" : 5120,
            "buffer" : 0
        },
        {
            "byteLength" : 2700,
            "byteOffset" : 8192,
            "buffer" : 0
        },
        {
            "byteLength" : 25540,
            "byteOffset" : 10892,
            "buffer" : 0
        }
    ],
    "buffers" : [
        {
            "byteLength" : 36432,
            "uri" : "data:application/octet-stream;base64,"
        }
    ]
}
