{
    "asset" : {
        "version" : "2.0",
        "generator" : "Khronos glTF Blender I/O v1.2.20"
    },
    "scene" : 0,
    "scenes" : [
        {
            "name" : "Scene",
            "nodes" : [
                0
            ]
        }
    ],
    "nodes" : [
        {
            "name" : "Crystal",
            "mesh" : 0
        }
    ],
    "materials" : [
        {
            "name" : "Crystal",
            "doubleSided" : true,
            "pbrMetallicRoughness" : {
                "metallicFactor" : 0,
                "baseColorFactor" : [
                    0,
                    0.7767915725708008,
                    1,
                    0.5
                ],
                "roughnessFactor" : 0.20000000298023224
            }
        }
    ],
    "meshes" : [
        {
            "name" : "Crystal",
            "primitives" : [
                {
                    "attributes" : {
                        "TEXCOORD_0" : 0,
                        "NORMAL" : 1,
                        "POSITION" : 2
                    },
                    "indices" : 3,
                    "material" : 0
                }
            ]
        }
    ],
    "accessors" : [
        {
            "type" : "VEC2",
            "count" : 180,
            "bufferView" : 0,
            "componentType" : 5126
        },
        {
            "type" : "VEC3",
            "count" : 180,
            "bufferView" : 1,
            "componentType" : 5126
        },
        {
            "bufferView" : 2,
            "max" : [
                2.6898183822631836,
                7.731868267059326,
                3.56272554397583
            ],
            "type" : "VEC3",
            "count" : 180,
            "min" : [
                -3.556816577911377,
                -0.27759021520614624,
                -3.6580698490142822
            ],
            "componentType" : 5126
        },
        {
            "type" : "SCALAR",
            "count" : 180,
            "bufferView" : 3,
            "componentType" : 5123
        }
    ],
    "bufferViews" : [
        {
            "byteLength" : 1440,
            "byteOffset" : 0,
            "buffer" : 0
        },
        {
            "byteLength" : 2160,
            "byteOffset" : 1440,
            "buffer" : 0
        },
        {
            "byteLength" : 2160,
            "byteOffset" : 3600,
            "buffer" : 0
        },
        {
            "byteLength" : 360,
            "byteOffset" : 5760,
            "buffer" : 0
        }
    ],
    "buffers" : [
        {
            "byteLength" : 6120,
            "uri" : "data:application/octet-stream;base64,"
        }
    ]
}
