{
    "asset" : {
        "version" : "2.0",
        "generator" : "Khronos glTF Blender I/O v1.2.20"
    },
    "scene" : 0,
    "scenes" : [
        {
            "nodes" : [
                0
            ],
            "name" : "Scene"
        }
    ],
    "nodes" : [
        {
            "mesh" : 0,
            "name" : "DeadTree"
        }
    ],
    "materials" : [
        {
            "name" : "DeadTree",
            "pbrMetallicRoughness" : {
                "roughnessFactor" : 0.800000011920929,
                "baseColorFactor" : [
                    0.31001657247543335,
                    0.31001657247543335,
                    0.31001657247543335,
                    1
                ],
                "metallicFactor" : 0
            }
        }
    ],
    "meshes" : [
        {
            "name" : "DeadTree",
            "primitives" : [
                {
                    "indices" : 3,
                    "attributes" : {
                        "TEXCOORD_0" : 0,
                        "NORMAL" : 1,
                        "POSITION" : 2
                    },
                    "material" : 0
                }
            ]
        }
    ],
    "accessors" : [
        {
            "componentType" : 5126,
            "count" : 1654,
            "bufferView" : 0,
            "type" : "VEC2"
        },
        {
            "componentType" : 5126,
            "count" : 1654,
            "bufferView" : 1,
            "type" : "VEC3"
        },
        {
            "componentType" : 5126,
            "min" : [
                -8.1402587890625,
                -2.6424560546875,
                -33.09521484375
            ],
            "bufferView" : 2,
            "count" : 1654,
            "max" : [
                15.7049560546875,
                30.31982421875,
                9.3056640625
            ],
            "type" : "VEC3"
        },
        {
            "componentType" : 5123,
            "count" : 3930,
            "bufferView" : 3,
            "type" : "SCALAR"
        }
    ],
    "bufferViews" : [
        {
            "byteLength" : 13232,
            "byteOffset" : 0,
            "buffer" : 0
        },
        {
            "byteLength" : 19848,
            "byteOffset" : 13232,
            "buffer" : 0
        },
        {
            "byteLength" : 19848,
            "byteOffset" : 33080,
            "buffer" : 0
        },
        {
            "byteLength" : 7860,
            "byteOffset" : 52928,
            "buffer" : 0
        }
    ],
    "buffers" : [
        {
            "uri" : "data:application/octet-stream;base64,",
            "byteLength" : 60788
        }
    ]
}
