{
    "asset" : {
        "generator" : "Khronos glTF Blender I/O v1.2.20",
        "version" : "2.0"
    },
    "scene" : 0,
    "scenes" : [
        {
            "nodes" : [
                0
            ],
            "name" : "Scene"
        }
    ],
    "nodes" : [
        {
            "mesh" : 0,
            "name" : "Den"
        }
    ],
    "materials" : [
        {
            "pbrMetallicRoughness" : {
                "baseColorTexture" : {
                    "index" : 0,
                    "texCoord" : 0
                },
                "metallicFactor" : 0,
                "roughnessFactor" : 0.800000011920929
            },
            "name" : "Den"
        }
    ],
    "meshes" : [
        {
            "primitives" : [
                {
                    "indices" : 3,
                    "material" : 0,
                    "attributes" : {
                        "POSITION" : 0,
                        "NORMAL" : 1,
                        "TEXCOORD_0" : 2
                    }
                }
            ],
            "name" : "Den"
        }
    ],
    "textures" : [
        {
            "source" : 0
        }
    ],
    "images" : [
        {
            "name" : "rockTex",
            "bufferView" : 4,
            "mimeType" : "image/jpeg"
        }
    ],
    "accessors" : [
        {
            "componentType" : 5126,
            "min" : [
                -36.07373046875,
                -7.97259521484375,
                -39.75537109375
            ],
            "count" : 2026,
            "bufferView" : 0,
            "max" : [
                37.34423828125,
                35.499755859375,
                35.255126953125
            ],
            "type" : "VEC3"
        },
        {
            "count" : 2026,
            "bufferView" : 1,
            "componentType" : 5126,
            "type" : "VEC3"
        },
        {
            "count" : 2026,
            "bufferView" : 2,
            "componentType" : 5126,
            "type" : "VEC2"
        },
        {
            "count" : 6756,
            "bufferView" : 3,
            "componentType" : 5123,
            "type" : "SCALAR"
        }
    ],
    "bufferViews" : [
        {
            "byteOffset" : 0,
            "byteLength" : 24312,
            "buffer" : 0
        },
        {
            "byteOffset" : 24312,
            "byteLength" : 24312,
            "buffer" : 0
        },
        {
            "byteOffset" : 48624,
            "byteLength" : 16208,
            "buffer" : 0
        },
        {
            "byteOffset" : 64832,
            "byteLength" : 13512,
            "buffer" : 0
        },
        {
            "byteOffset" : 78344,
            "byteLength" : 25540,
            "buffer" : 0
        }
    ],
    "buffers" : [
        {
            "uri" : "data:application/octet-stream;base64,",
            "byteLength" : 103884
        }
    ]
}
