{
    "asset" : {
        "version" : "2.0",
        "generator" : "Khronos glTF Blender I/O v1.2.20"
    },
    "scene" : 0,
    "scenes" : [
        {
            "nodes" : [
                0
            ],
            "name" : "Scene"
        }
    ],
    "nodes" : [
        {
            "mesh" : 0,
            "name" : "DynamicSkyDome"
        }
    ],
    "materials" : [
        {
            "pbrMetallicRoughness" : {
                "baseColorTexture" : {
                    "index" : 0,
                    "texCoord" : 0
                }
            },
            "name" : "DynamicSky"
        }
    ],
    "meshes" : [
        {
            "primitives" : [
                {
                    "attributes" : {
                        "NORMAL" : 0,
                        "POSITION" : 1,
                        "TEXCOORD_0" : 2
                    },
                    "material" : 0,
                    "indices" : 3
                }
            ],
            "name" : "Sphere.003"
        }
    ],
    "textures" : [
        {
            "source" : 0
        }
    ],
    "images" : [
        {
            "bufferView" : 4,
            "mimeType" : "image/png",
            "name" : "SkyMask"
        }
    ],
    "accessors" : [
        {
            "bufferView" : 0,
            "componentType" : 5126,
            "type" : "VEC3",
            "count" : 257
        },
        {
            "bufferView" : 1,
            "componentType" : 5126,
            "type" : "VEC3",
            "min" : [
                -0.9999998211860657,
                7.549790126404332e-08,
                -1
            ],
            "max" : [
                1.000000238418579,
                1,
                1.0000003576278687
            ],
            "count" : 257
        },
        {
            "bufferView" : 2,
            "componentType" : 5126,
            "type" : "VEC2",
            "count" : 257
        },
        {
            "bufferView" : 3,
            "componentType" : 5123,
            "type" : "SCALAR",
            "count" : 1440
        }
    ],
    "bufferViews" : [
        {
            "byteOffset" : 0,
            "byteLength" : 3084,
            "buffer" : 0
        },
        {
            "byteOffset" : 3084,
            "byteLength" : 3084,
            "buffer" : 0
        },
        {
            "byteOffset" : 6168,
            "byteLength" : 2056,
            "buffer" : 0
        },
        {
            "byteOffset" : 8224,
            "byteLength" : 2880,
            "buffer" : 0
        },
        {
            "byteOffset" : 11104,
            "byteLength" : 652995,
            "buffer" : 0
        }
    ],
    "buffers" : [
        {
            "uri" : "data:application/octet-stream;base64,",
            "byteLength" : 664100
        }
    ]
}
