{
    "asset" : {
        "version" : "2.0",
        "generator" : "Khronos glTF Blender I/O v1.2.20"
    },
    "scene" : 0,
    "scenes" : [
        {
            "nodes" : [
                0
            ],
            "name" : "Scene"
        }
    ],
    "nodes" : [
        {
            "mesh" : 0,
            "name" : "Farn2"
        }
    ],
    "materials" : [
        {
            "pbrMetallicRoughness" : {
                "baseColorTexture" : {
                    "index" : 0,
                    "texCoord" : 0
                },
                "metallicFactor" : 0,
                "roughnessFactor" : 0.20000000298023224
            },
            "doubleSided" : true,
            "name" : "Farn2"
        }
    ],
    "meshes" : [
        {
            "primitives" : [
                {
                    "material" : 0,
                    "attributes" : {
                        "TEXCOORD_0" : 0,
                        "POSITION" : 1,
                        "NORMAL" : 2
                    },
                    "indices" : 3
                }
            ],
            "name" : "Farn2"
        }
    ],
    "textures" : [
        {
            "source" : 0
        }
    ],
    "images" : [
        {
            "bufferView" : 4,
            "mimeType" : "image/png",
            "name" : "farn02"
        }
    ],
    "accessors" : [
        {
            "type" : "VEC2",
            "componentType" : 5126,
            "bufferView" : 0,
            "count" : 192
        },
        {
            "type" : "VEC3",
            "componentType" : 5126,
            "min" : [
                -6.1199951171875,
                -0.4996910095214844,
                -5.9307861328125
            ],
            "bufferView" : 1,
            "count" : 192,
            "max" : [
                5.7069091796875,
                6.1529541015625,
                6.31494140625
            ]
        },
        {
            "type" : "VEC3",
            "componentType" : 5126,
            "bufferView" : 2,
            "count" : 192
        },
        {
            "type" : "SCALAR",
            "componentType" : 5123,
            "bufferView" : 3,
            "count" : 288
        }
    ],
    "bufferViews" : [
        {
            "byteOffset" : 0,
            "buffer" : 0,
            "byteLength" : 1536
        },
        {
            "byteOffset" : 1536,
            "buffer" : 0,
            "byteLength" : 2304
        },
        {
            "byteOffset" : 3840,
            "buffer" : 0,
            "byteLength" : 2304
        },
        {
            "byteOffset" : 6144,
            "buffer" : 0,
            "byteLength" : 576
        },
        {
            "byteOffset" : 6720,
            "buffer" : 0,
            "byteLength" : 93010
        }
    ],
    "buffers" : [
        {
            "byteLength" : 99732,
            "uri" : "data:application/octet-stream;base64,"
        }
    ]
}
