{
    "asset" : {
        "version" : "2.0",
        "generator" : "Khronos glTF Blender I/O v1.2.20"
    },
    "scene" : 0,
    "scenes" : [
        {
            "name" : "Scene",
            "nodes" : [
                0
            ]
        }
    ],
    "nodes" : [
        {
            "mesh" : 0,
            "name" : "Farn"
        }
    ],
    "materials" : [
        {
            "pbrMetallicRoughness" : {
                "metallicFactor" : 0,
                "baseColorTexture" : {
                    "texCoord" : 0,
                    "index" : 0
                },
                "roughnessFactor" : 0.20000000298023224
            },
            "name" : "Farn",
            "doubleSided" : true
        }
    ],
    "meshes" : [
        {
            "primitives" : [
                {
                    "material" : 0,
                    "attributes" : {
                        "POSITION" : 0,
                        "TEXCOORD_0" : 1,
                        "NORMAL" : 2
                    },
                    "indices" : 3
                }
            ],
            "name" : "Farn"
        }
    ],
    "textures" : [
        {
            "source" : 0
        }
    ],
    "images" : [
        {
            "name" : "farn01",
            "mimeType" : "image/png",
            "bufferView" : 4
        }
    ],
    "accessors" : [
        {
            "count" : 120,
            "type" : "VEC3",
            "componentType" : 5126,
            "min" : [
                -9.650634765625,
                -0.7982406616210938,
                -9.6995849609375
            ],
            "max" : [
                9.73828125,
                6.9732666015625,
                9.64569091796875
            ],
            "bufferView" : 0
        },
        {
            "componentType" : 5126,
            "count" : 120,
            "type" : "VEC2",
            "bufferView" : 1
        },
        {
            "componentType" : 5126,
            "count" : 120,
            "type" : "VEC3",
            "bufferView" : 2
        },
        {
            "componentType" : 5123,
            "count" : 180,
            "type" : "SCALAR",
            "bufferView" : 3
        }
    ],
    "bufferViews" : [
        {
            "buffer" : 0,
            "byteOffset" : 0,
            "byteLength" : 1440
        },
        {
            "buffer" : 0,
            "byteOffset" : 1440,
            "byteLength" : 960
        },
        {
            "buffer" : 0,
            "byteOffset" : 2400,
            "byteLength" : 1440
        },
        {
            "buffer" : 0,
            "byteOffset" : 3840,
            "byteLength" : 360
        },
        {
            "buffer" : 0,
            "byteOffset" : 4200,
            "byteLength" : 82278
        }
    ],
    "buffers" : [
        {
            "uri" : "data:application/octet-stream;base64,",
            "byteLength" : 86480
        }
    ]
}
