{
    "asset" : {
        "version" : "2.0",
        "generator" : "Khronos glTF Blender I/O v1.2.20"
    },
    "scene" : 0,
    "scenes" : [
        {
            "name" : "Scene",
            "nodes" : [
                1
            ]
        }
    ],
    "nodes" : [
        {
            "name" : "FernLeaves",
            "mesh" : 0
        },
        {
            "name" : "Fern",
            "mesh" : 1,
            "children" : [
                0
            ]
        }
    ],
    "materials" : [
        {
            "doubleSided" : true,
            "name" : "Leaves",
            "pbrMetallicRoughness" : {
                "roughnessFactor" : 0.5,
                "metallicFactor" : 0,
                "baseColorTexture" : {
                    "texCoord" : 0,
                    "index" : 0
                }
            }
        },
        {
            "name" : "Stalk",
            "pbrMetallicRoughness" : {
                "baseColorFactor" : [
                    0.5926331877708435,
                    0.3146167993545532,
                    0,
                    1
                ],
                "roughnessFactor" : 0.20000000298023224,
                "metallicFactor" : 0
            }
        }
    ],
    "meshes" : [
        {
            "name" : "Fern.001",
            "primitives" : [
                {
                    "indices" : 3,
                    "material" : 0,
                    "attributes" : {
                        "POSITION" : 0,
                        "NORMAL" : 1,
                        "TEXCOORD_0" : 2
                    }
                }
            ]
        },
        {
            "name" : "Fern",
            "primitives" : [
                {
                    "indices" : 7,
                    "material" : 1,
                    "attributes" : {
                        "POSITION" : 4,
                        "NORMAL" : 5,
                        "TEXCOORD_0" : 6
                    }
                }
            ]
        }
    ],
    "textures" : [
        {
            "source" : 0
        }
    ],
    "images" : [
        {
            "name" : "fernLeaf",
            "mimeType" : "image/png",
            "bufferView" : 4
        }
    ],
    "accessors" : [
        {
            "max" : [
                24.167673110961914,
                16.76667594909668,
                19.255491256713867
            ],
            "count" : 144,
            "componentType" : 5126,
            "bufferView" : 0,
            "min" : [
                -19.844640731811523,
                0.3143158555030823,
                -19.663103103637695
            ],
            "type" : "VEC3"
        },
        {
            "bufferView" : 1,
            "count" : 144,
            "componentType" : 5126,
            "type" : "VEC3"
        },
        {
            "bufferView" : 2,
            "count" : 144,
            "componentType" : 5126,
            "type" : "VEC2"
        },
        {
            "bufferView" : 3,
            "count" : 480,
            "componentType" : 5123,
            "type" : "SCALAR"
        },
        {
            "max" : [
                0.9034466743469238,
                1.350703239440918,
                1.6070185899734497
            ],
            "count" : 12,
            "componentType" : 5126,
            "bufferView" : 5,
            "min" : [
                -1.8508503437042236,
                -0.2768353819847107,
                -1.1472784280776978
            ],
            "type" : "VEC3"
        },
        {
            "bufferView" : 6,
            "count" : 12,
            "componentType" : 5126,
            "type" : "VEC3"
        },
        {
            "bufferView" : 7,
            "count" : 12,
            "componentType" : 5126,
            "type" : "VEC2"
        },
        {
            "bufferView" : 8,
            "count" : 12,
            "componentType" : 5123,
            "type" : "SCALAR"
        }
    ],
    "bufferViews" : [
        {
            "buffer" : 0,
            "byteLength" : 1728,
            "byteOffset" : 0
        },
        {
            "buffer" : 0,
            "byteLength" : 1728,
            "byteOffset" : 1728
        },
        {
            "buffer" : 0,
            "byteLength" : 1152,
            "byteOffset" : 3456
        },
        {
            "buffer" : 0,
            "byteLength" : 960,
            "byteOffset" : 4608
        },
        {
            "buffer" : 0,
            "byteLength" : 63825,
            "byteOffset" : 5568
        },
        {
            "buffer" : 0,
            "byteLength" : 144,
            "byteOffset" : 69396
        },
        {
            "buffer" : 0,
            "byteLength" : 144,
            "byteOffset" : 69540
        },
        {
            "buffer" : 0,
            "byteLength" : 96,
            "byteOffset" : 69684
        },
        {
            "buffer" : 0,
            "byteLength" : 24,
            "byteOffset" : 69780
        }
    ],
    "buffers" : [
        {
            "byteLength" : 69804,
            "uri" : "data:application/octet-stream;base64,"
        }
    ]
}
