{
    "asset" : {
        "generator" : "Khronos glTF Blender I/O v1.2.20",
        "version" : "2.0"
    },
    "scene" : 0,
    "scenes" : [
        {
            "name" : "Scene",
            "nodes" : [
                1
            ]
        }
    ],
    "nodes" : [
        {
            "name" : "FirLeaves",
            "mesh" : 0
        },
        {
            "name" : "Fir05-30",
            "children" : [
                0
            ],
            "mesh" : 1
        }
    ],
    "materials" : [
        {
            "pbrMetallicRoughness" : {
                "baseColorTexture" : {
                    "index" : 0,
                    "texCoord" : 0
                },
                "metallicFactor" : 0,
                "roughnessFactor" : 0.20000000298023224
            },
            "name" : "Leaves"
        },
        {
            "pbrMetallicRoughness" : {
                "baseColorTexture" : {
                    "index" : 1,
                    "texCoord" : 0
                },
                "metallicFactor" : 0,
                "roughnessFactor" : 0.800000011920929
            },
            "name" : "Bark"
        }
    ],
    "meshes" : [
        {
            "primitives" : [
                {
                    "indices" : 3,
                    "attributes" : {
                        "TEXCOORD_0" : 0,
                        "POSITION" : 1,
                        "NORMAL" : 2
                    },
                    "material" : 0
                }
            ],
            "name" : "Fir05-30.001"
        },
        {
            "primitives" : [
                {
                    "indices" : 7,
                    "attributes" : {
                        "TEXCOORD_0" : 4,
                        "POSITION" : 5,
                        "NORMAL" : 6
                    },
                    "material" : 1
                }
            ],
            "name" : "Fir05-30"
        }
    ],
    "textures" : [
        {
            "source" : 0
        },
        {
            "source" : 1
        }
    ],
    "images" : [
        {
            "name" : "fir01",
            "mimeType" : "image/png",
            "bufferView" : 4
        },
        {
            "name" : "fir02",
            "mimeType" : "image/jpeg",
            "bufferView" : 9
        }
    ],
    "accessors" : [
        {
            "type" : "VEC2",
            "componentType" : 5126,
            "bufferView" : 0,
            "count" : 2796
        },
        {
            "min" : [
                -30.32763671875,
                8.5194091796875,
                -34.3125
            ],
            "max" : [
                33.613037109375,
                120.0693359375,
                34.67431640625
            ],
            "count" : 2796,
            "type" : "VEC3",
            "componentType" : 5126,
            "bufferView" : 1
        },
        {
            "type" : "VEC3",
            "componentType" : 5126,
            "bufferView" : 2,
            "count" : 2796
        },
        {
            "type" : "SCALAR",
            "componentType" : 5123,
            "bufferView" : 3,
            "count" : 2796
        },
        {
            "type" : "VEC2",
            "componentType" : 5126,
            "bufferView" : 5,
            "count" : 68
        },
        {
            "min" : [
                -1.330596923828125,
                -0.4330329895019531,
                -1.832183837890625
            ],
            "max" : [
                2.22808837890625,
                106.4541015625,
                1.7814178466796875
            ],
            "count" : 68,
            "type" : "VEC3",
            "componentType" : 5126,
            "bufferView" : 6
        },
        {
            "type" : "VEC3",
            "componentType" : 5126,
            "bufferView" : 7,
            "count" : 68
        },
        {
            "type" : "SCALAR",
            "componentType" : 5123,
            "bufferView" : 8,
            "count" : 228
        }
    ],
    "bufferViews" : [
        {
            "byteLength" : 22368,
            "buffer" : 0,
            "byteOffset" : 0
        },
        {
            "byteLength" : 33552,
            "buffer" : 0,
            "byteOffset" : 22368
        },
        {
            "byteLength" : 33552,
            "buffer" : 0,
            "byteOffset" : 55920
        },
        {
            "byteLength" : 5592,
            "buffer" : 0,
            "byteOffset" : 89472
        },
        {
            "byteLength" : 339174,
            "buffer" : 0,
            "byteOffset" : 95064
        },
        {
            "byteLength" : 544,
            "buffer" : 0,
            "byteOffset" : 434240
        },
        {
            "byteLength" : 816,
            "buffer" : 0,
            "byteOffset" : 434784
        },
        {
            "byteLength" : 816,
            "buffer" : 0,
            "byteOffset" : 435600
        },
        {
            "byteLength" : 456,
            "buffer" : 0,
            "byteOffset" : 436416
        },
        {
            "byteLength" : 343534,
            "buffer" : 0,
            "byteOffset" : 436872
        }
    ],
    "buffers" : [
        {
            "byteLength" : 780408,
            "uri" : "data:application/octet-stream;base64,"
        }
    ]
}
