{
    "asset" : {
        "version" : "2.0",
        "generator" : "Khronos glTF Blender I/O v1.2.20"
    },
    "scene" : 0,
    "scenes" : [
        {
            "name" : "Scene",
            "nodes" : [
                1
            ]
        }
    ],
    "nodes" : [
        {
            "name" : "FirLeaves",
            "mesh" : 0
        },
        {
            "name" : "Fir14-25",
            "mesh" : 1,
            "children" : [
                0
            ]
        }
    ],
    "materials" : [
        {
            "name" : "Leaves",
            "pbrMetallicRoughness" : {
                "baseColorTexture" : {
                    "texCoord" : 0,
                    "index" : 0
                },
                "roughnessFactor" : 0.20000000298023224,
                "metallicFactor" : 0
            }
        },
        {
            "name" : "Bark",
            "pbrMetallicRoughness" : {
                "baseColorTexture" : {
                    "texCoord" : 0,
                    "index" : 1
                },
                "roughnessFactor" : 0.800000011920929,
                "metallicFactor" : 0
            }
        }
    ],
    "meshes" : [
        {
            "name" : "Fir14-25.001",
            "primitives" : [
                {
                    "indices" : 3,
                    "material" : 0,
                    "attributes" : {
                        "TEXCOORD_0" : 0,
                        "NORMAL" : 1,
                        "POSITION" : 2
                    }
                }
            ]
        },
        {
            "name" : "Fir14-25",
            "primitives" : [
                {
                    "indices" : 7,
                    "material" : 1,
                    "attributes" : {
                        "TEXCOORD_0" : 4,
                        "NORMAL" : 5,
                        "POSITION" : 6
                    }
                }
            ]
        }
    ],
    "textures" : [
        {
            "source" : 0
        },
        {
            "source" : 1
        }
    ],
    "images" : [
        {
            "name" : "fir01",
            "bufferView" : 4,
            "mimeType" : "image/png"
        },
        {
            "name" : "fir02",
            "bufferView" : 9,
            "mimeType" : "image/jpeg"
        }
    ],
    "accessors" : [
        {
            "count" : 2481,
            "componentType" : 5126,
            "bufferView" : 0,
            "type" : "VEC2"
        },
        {
            "count" : 2481,
            "componentType" : 5126,
            "bufferView" : 1,
            "type" : "VEC3"
        },
        {
            "componentType" : 5126,
            "bufferView" : 2,
            "min" : [
                -33.273681640625,
                71.61083984375,
                -33.09521484375
            ],
            "count" : 2481,
            "max" : [
                34.036376953125,
                188.302734375,
                34.17236328125
            ],
            "type" : "VEC3"
        },
        {
            "count" : 2481,
            "componentType" : 5123,
            "bufferView" : 3,
            "type" : "SCALAR"
        },
        {
            "count" : 56,
            "componentType" : 5126,
            "bufferView" : 5,
            "type" : "VEC2"
        },
        {
            "count" : 56,
            "componentType" : 5126,
            "bufferView" : 6,
            "type" : "VEC3"
        },
        {
            "componentType" : 5126,
            "bufferView" : 7,
            "min" : [
                -3.3779296875,
                -0.4552001953125,
                -2.75860595703125
            ],
            "count" : 56,
            "max" : [
                3.52593994140625,
                174.6875,
                4.044830322265625
            ],
            "type" : "VEC3"
        },
        {
            "count" : 243,
            "componentType" : 5123,
            "bufferView" : 8,
            "type" : "SCALAR"
        }
    ],
    "bufferViews" : [
        {
            "byteOffset" : 0,
            "byteLength" : 19848,
            "buffer" : 0
        },
        {
            "byteOffset" : 19848,
            "byteLength" : 29772,
            "buffer" : 0
        },
        {
            "byteOffset" : 49620,
            "byteLength" : 29772,
            "buffer" : 0
        },
        {
            "byteOffset" : 79392,
            "byteLength" : 4962,
            "buffer" : 0
        },
        {
            "byteOffset" : 84356,
            "byteLength" : 339174,
            "buffer" : 0
        },
        {
            "byteOffset" : 423532,
            "byteLength" : 448,
            "buffer" : 0
        },
        {
            "byteOffset" : 423980,
            "byteLength" : 672,
            "buffer" : 0
        },
        {
            "byteOffset" : 424652,
            "byteLength" : 672,
            "buffer" : 0
        },
        {
            "byteOffset" : 425324,
            "byteLength" : 486,
            "buffer" : 0
        },
        {
            "byteOffset" : 425812,
            "byteLength" : 343534,
            "buffer" : 0
        }
    ],
    "buffers" : [
        {
            "byteLength" : 769348,
            "uri" : "data:application/octet-stream;base64,"
        }
    ]
}
