{
    "asset" : {
        "version" : "2.0",
        "generator" : "Khronos glTF Blender I/O v1.2.20"
    },
    "scene" : 0,
    "scenes" : [
        {
            "nodes" : [
                0
            ],
            "name" : "Scene"
        }
    ],
    "nodes" : [
        {
            "mesh" : 0,
            "name" : "Grass"
        }
    ],
    "materials" : [
        {
            "doubleSided" : true,
            "name" : "Grass",
            "pbrMetallicRoughness" : {
                "metallicFactor" : 0,
                "roughnessFactor" : 0.20000000298023224,
                "baseColorTexture" : {
                    "texCoord" : 0,
                    "index" : 0
                }
            }
        }
    ],
    "meshes" : [
        {
            "primitives" : [
                {
                    "attributes" : {
                        "COLOR_0" : 0,
                        "TEXCOORD_0" : 1,
                        "NORMAL" : 2,
                        "POSITION" : 3
                    },
                    "indices" : 4,
                    "material" : 0
                }
            ],
            "name" : "Grass"
        }
    ],
    "textures" : [
        {
            "source" : 0
        }
    ],
    "images" : [
        {
            "mimeType" : "image/png",
            "bufferView" : 5,
            "name" : "grassPatch"
        }
    ],
    "accessors" : [
        {
            "componentType" : 5126,
            "count" : 24,
            "bufferView" : 0,
            "type" : "VEC4"
        },
        {
            "componentType" : 5126,
            "count" : 24,
            "bufferView" : 1,
            "type" : "VEC2"
        },
        {
            "componentType" : 5126,
            "count" : 24,
            "bufferView" : 2,
            "type" : "VEC3"
        },
        {
            "componentType" : 5126,
            "count" : 24,
            "bufferView" : 3,
            "min" : [
                -0.9999999403953552,
                0,
                -0.9999999403953552
            ],
            "max" : [
                0.9999999403953552,
                2,
                0.9999999403953552
            ],
            "type" : "VEC3"
        },
        {
            "componentType" : 5123,
            "count" : 24,
            "bufferView" : 4,
            "type" : "SCALAR"
        }
    ],
    "bufferViews" : [
        {
            "buffer" : 0,
            "byteOffset" : 0,
            "byteLength" : 384
        },
        {
            "buffer" : 0,
            "byteOffset" : 384,
            "byteLength" : 192
        },
        {
            "buffer" : 0,
            "byteOffset" : 576,
            "byteLength" : 288
        },
        {
            "buffer" : 0,
            "byteOffset" : 864,
            "byteLength" : 288
        },
        {
            "buffer" : 0,
            "byteOffset" : 1152,
            "byteLength" : 48
        },
        {
            "buffer" : 0,
            "byteOffset" : 1200,
            "byteLength" : 107846
        }
    ],
    "buffers" : [
        {
            "uri" : "data:application/octet-stream;base64,",
            "byteLength" : 109048
        }
    ]
}
