{
    "asset" : {
        "version" : "2.0",
        "generator" : "Khronos glTF Blender I/O v1.2.20"
    },
    "scene" : 0,
    "scenes" : [
        {
            "name" : "Scene",
            "nodes" : [
                0
            ]
        }
    ],
    "nodes" : [
        {
            "mesh" : 0,
            "rotation" : [
                0.7071067690849304,
                0,
                0,
                0.7071067690849304
            ],
            "name" : "Grave",
            "scale" : [
                0.009999999776482582,
                0.009999999776482582,
                0.009999999776482582
            ]
        }
    ],
    "materials" : [
        {
            "name" : "Grave",
            "pbrMetallicRoughness" : {
                "baseColorTexture" : {
                    "texCoord" : 0,
                    "index" : 0
                },
                "roughnessFactor" : 0.800000011920929,
                "metallicFactor" : 0
            }
        }
    ],
    "meshes" : [
        {
            "name" : "Grave",
            "primitives" : [
                {
                    "indices" : 3,
                    "attributes" : {
                        "TEXCOORD_0" : 0,
                        "NORMAL" : 1,
                        "POSITION" : 2
                    },
                    "material" : 0
                }
            ]
        }
    ],
    "textures" : [
        {
            "source" : 0
        }
    ],
    "images" : [
        {
            "bufferView" : 4,
            "mimeType" : "image/jpeg",
            "name" : "graveTex"
        }
    ],
    "accessors" : [
        {
            "bufferView" : 0,
            "componentType" : 5126,
            "type" : "VEC2",
            "count" : 62
        },
        {
            "bufferView" : 1,
            "componentType" : 5126,
            "type" : "VEC3",
            "count" : 62
        },
        {
            "bufferView" : 2,
            "max" : [
                230.12692260742188,
                113.5103988647461,
                35.55240249633789
            ],
            "count" : 62,
            "componentType" : 5126,
            "min" : [
                -230.12692260742188,
                -113.5103988647461,
                -653.4446411132812
            ],
            "type" : "VEC3"
        },
        {
            "bufferView" : 3,
            "componentType" : 5123,
            "type" : "SCALAR",
            "count" : 240
        }
    ],
    "bufferViews" : [
        {
            "byteLength" : 496,
            "buffer" : 0,
            "byteOffset" : 0
        },
        {
            "byteLength" : 744,
            "buffer" : 0,
            "byteOffset" : 496
        },
        {
            "byteLength" : 744,
            "buffer" : 0,
            "byteOffset" : 1240
        },
        {
            "byteLength" : 480,
            "buffer" : 0,
            "byteOffset" : 1984
        },
        {
            "byteLength" : 3317,
            "buffer" : 0,
            "byteOffset" : 2464
        }
    ],
    "buffers" : [
        {
            "uri" : "data:application/octet-stream;base64,",
            "byteLength" : 5784
        }
    ]
}
