{
    "asset" : {
        "generator" : "Khronos glTF Blender I/O v1.2.20",
        "version" : "2.0"
    },
    "scene" : 0,
    "scenes" : [
        {
            "name" : "Scene",
            "nodes" : [
                0
            ]
        }
    ],
    "nodes" : [
        {
            "name" : "InvColSphere",
            "mesh" : 0
        }
    ],
    "materials" : [
        {
            "name" : "InvColSphere",
            "pbrMetallicRoughness" : {}
        }
    ],
    "meshes" : [
        {
            "primitives" : [
                {
                    "material" : 0,
                    "indices" : 2,
                    "attributes" : {
                        "NORMAL" : 0,
                        "POSITION" : 1
                    }
                }
            ],
            "name" : "Sphere"
        }
    ],
    "accessors" : [
        {
            "count" : 1984,
            "type" : "VEC3",
            "componentType" : 5126,
            "bufferView" : 0
        },
        {
            "count" : 1984,
            "min" : [
                -0.9999998807907104,
                -1,
                -1.0000001192092896
            ],
            "type" : "VEC3",
            "componentType" : 5126,
            "bufferView" : 1,
            "max" : [
                1.0000001192092896,
                1,
                1.000000238418579
            ]
        },
        {
            "count" : 2880,
            "type" : "SCALAR",
            "componentType" : 5123,
            "bufferView" : 2
        }
    ],
    "bufferViews" : [
        {
            "buffer" : 0,
            "byteOffset" : 0,
            "byteLength" : 23808
        },
        {
            "buffer" : 0,
            "byteOffset" : 23808,
            "byteLength" : 23808
        },
        {
            "buffer" : 0,
            "byteOffset" : 47616,
            "byteLength" : 5760
        }
    ],
    "buffers" : [
        {
            "uri" : "data:application/octet-stream;base64,",
            "byteLength" : 53376
        }
    ]
}
