{
    "asset" : {
        "generator" : "Khronos glTF Blender I/O v1.2.20",
        "version" : "2.0"
    },
    "scene" : 0,
    "scenes" : [
        {
            "nodes" : [
                0
            ],
            "name" : "Scene"
        }
    ],
    "nodes" : [
        {
            "name" : "InvColBox",
            "mesh" : 0
        }
    ],
    "materials" : [
        {
            "pbrMetallicRoughness" : {},
            "name" : "InvColBox"
        }
    ],
    "meshes" : [
        {
            "primitives" : [
                {
                    "attributes" : {
                        "NORMAL" : 0,
                        "POSITION" : 1
                    },
                    "indices" : 2,
                    "material" : 0
                }
            ],
            "name" : "Cube"
        }
    ],
    "accessors" : [
        {
            "count" : 24,
            "type" : "VEC3",
            "componentType" : 5126,
            "bufferView" : 0
        },
        {
            "min" : [
                -1.0000003576278687,
                -1,
                -1.0000003576278687
            ],
            "count" : 24,
            "type" : "VEC3",
            "componentType" : 5126,
            "max" : [
                1.0000004768371582,
                1,
                1.0000005960464478
            ],
            "bufferView" : 1
        },
        {
            "count" : 36,
            "type" : "SCALAR",
            "componentType" : 5123,
            "bufferView" : 2
        }
    ],
    "bufferViews" : [
        {
            "byteLength" : 288,
            "buffer" : 0,
            "byteOffset" : 0
        },
        {
            "byteLength" : 288,
            "buffer" : 0,
            "byteOffset" : 288
        },
        {
            "byteLength" : 72,
            "buffer" : 0,
            "byteOffset" : 576
        }
    ],
    "buffers" : [
        {
            "uri" : "data:application/octet-stream;base64,",
            "byteLength" : 648
        }
    ]
}
