{
    "asset" : {
        "version" : "2.0",
        "generator" : "Khronos glTF Blender I/O v1.2.20"
    },
    "scene" : 0,
    "scenes" : [
        {
            "name" : "Scene",
            "nodes" : [
                1
            ]
        }
    ],
    "nodes" : [
        {
            "mesh" : 0,
            "name" : "JungleTreeLeaves"
        },
        {
            "mesh" : 1,
            "name" : "JungleTree",
            "children" : [
                0
            ]
        }
    ],
    "materials" : [
        {
            "doubleSided" : true,
            "pbrMetallicRoughness" : {
                "roughnessFactor" : 0.20000000298023224,
                "metallicFactor" : 0,
                "baseColorTexture" : {
                    "texCoord" : 0,
                    "index" : 0
                }
            },
            "name" : "Leaves"
        },
        {
            "pbrMetallicRoughness" : {
                "roughnessFactor" : 0.800000011920929,
                "metallicFactor" : 0,
                "baseColorTexture" : {
                    "texCoord" : 0,
                    "index" : 1
                }
            },
            "name" : "Bark"
        }
    ],
    "meshes" : [
        {
            "primitives" : [
                {
                    "material" : 0,
                    "attributes" : {
                        "NORMAL" : 0,
                        "POSITION" : 1,
                        "TEXCOORD_0" : 2
                    },
                    "indices" : 3
                }
            ],
            "name" : "JungleTree.001"
        },
        {
            "primitives" : [
                {
                    "material" : 1,
                    "attributes" : {
                        "NORMAL" : 4,
                        "POSITION" : 5,
                        "TEXCOORD_0" : 6
                    },
                    "indices" : 7
                }
            ],
            "name" : "JungleTree"
        }
    ],
    "textures" : [
        {
            "source" : 0
        },
        {
            "source" : 1
        }
    ],
    "images" : [
        {
            "mimeType" : "image/png",
            "name" : "savannahLeaves",
            "bufferView" : 4
        },
        {
            "mimeType" : "image/jpeg",
            "name" : "acaciaBark",
            "bufferView" : 9
        }
    ],
    "accessors" : [
        {
            "type" : "VEC3",
            "count" : 30,
            "bufferView" : 0,
            "componentType" : 5126
        },
        {
            "max" : [
                19.8330078125,
                34.314208984375,
                18.3558349609375
            ],
            "count" : 30,
            "min" : [
                -21.160400390625,
                11.556884765625,
                -18.998779296875
            ],
            "componentType" : 5126,
            "type" : "VEC3",
            "bufferView" : 1
        },
        {
            "type" : "VEC2",
            "count" : 30,
            "bufferView" : 2,
            "componentType" : 5126
        },
        {
            "type" : "SCALAR",
            "count" : 30,
            "bufferView" : 3,
            "componentType" : 5123
        },
        {
            "type" : "VEC3",
            "count" : 35,
            "bufferView" : 5,
            "componentType" : 5126
        },
        {
            "max" : [
                0.17993927001953125,
                22.605712890625,
                0.20836830139160156
            ],
            "count" : 35,
            "min" : [
                -0.17993736267089844,
                -0.0002016071230173111,
                -0.2071819305419922
            ],
            "componentType" : 5126,
            "type" : "VEC3",
            "bufferView" : 6
        },
        {
            "type" : "VEC2",
            "count" : 35,
            "bufferView" : 7,
            "componentType" : 5126
        },
        {
            "type" : "SCALAR",
            "count" : 108,
            "bufferView" : 8,
            "componentType" : 5123
        }
    ],
    "bufferViews" : [
        {
            "byteLength" : 360,
            "byteOffset" : 0,
            "buffer" : 0
        },
        {
            "byteLength" : 360,
            "byteOffset" : 360,
            "buffer" : 0
        },
        {
            "byteLength" : 240,
            "byteOffset" : 720,
            "buffer" : 0
        },
        {
            "byteLength" : 60,
            "byteOffset" : 960,
            "buffer" : 0
        },
        {
            "byteLength" : 186514,
            "byteOffset" : 1020,
            "buffer" : 0
        },
        {
            "byteLength" : 420,
            "byteOffset" : 187536,
            "buffer" : 0
        },
        {
            "byteLength" : 420,
            "byteOffset" : 187956,
            "buffer" : 0
        },
        {
            "byteLength" : 280,
            "byteOffset" : 188376,
            "buffer" : 0
        },
        {
            "byteLength" : 216,
            "byteOffset" : 188656,
            "buffer" : 0
        },
        {
            "byteLength" : 115093,
            "byteOffset" : 188872,
            "buffer" : 0
        }
    ],
    "buffers" : [
        {
            "byteLength" : 303968,
            "uri" : "data:application/octet-stream;base64,"
        }
    ]
}
