{
    "asset" : {
        "version" : "2.0",
        "generator" : "Khronos glTF Blender I/O v1.2.20"
    },
    "scene" : 0,
    "scenes" : [
        {
            "nodes" : [
                0
            ],
            "name" : "Scene"
        }
    ],
    "nodes" : [
        {
            "mesh" : 0,
            "name" : "Plant2"
        }
    ],
    "materials" : [
        {
            "pbrMetallicRoughness" : {
                "baseColorTexture" : {
                    "texCoord" : 0,
                    "index" : 0
                },
                "metallicFactor" : 0,
                "roughnessFactor" : 0.800000011920929
            },
            "doubleSided" : true,
            "name" : "Plant2"
        }
    ],
    "meshes" : [
        {
            "primitives" : [
                {
                    "indices" : 3,
                    "attributes" : {
                        "TEXCOORD_0" : 0,
                        "POSITION" : 1,
                        "NORMAL" : 2
                    },
                    "material" : 0
                }
            ],
            "name" : "Plant2"
        }
    ],
    "textures" : [
        {
            "source" : 0
        }
    ],
    "images" : [
        {
            "mimeType" : "image/png",
            "bufferView" : 4,
            "name" : "plant2"
        }
    ],
    "accessors" : [
        {
            "count" : 61,
            "bufferView" : 0,
            "componentType" : 5126,
            "type" : "VEC2"
        },
        {
            "min" : [
                -1.5799407958984375,
                -0.32807159423828125,
                -2.46954345703125
            ],
            "max" : [
                2.0196685791015625,
                6.36822509765625,
                2.009002685546875
            ],
            "type" : "VEC3",
            "bufferView" : 1,
            "componentType" : 5126,
            "count" : 61
        },
        {
            "count" : 61,
            "bufferView" : 2,
            "componentType" : 5126,
            "type" : "VEC3"
        },
        {
            "count" : 156,
            "bufferView" : 3,
            "componentType" : 5123,
            "type" : "SCALAR"
        }
    ],
    "bufferViews" : [
        {
            "byteOffset" : 0,
            "buffer" : 0,
            "byteLength" : 488
        },
        {
            "byteOffset" : 488,
            "buffer" : 0,
            "byteLength" : 732
        },
        {
            "byteOffset" : 1220,
            "buffer" : 0,
            "byteLength" : 732
        },
        {
            "byteOffset" : 1952,
            "buffer" : 0,
            "byteLength" : 312
        },
        {
            "byteOffset" : 2264,
            "buffer" : 0,
            "byteLength" : 65180
        }
    ],
    "buffers" : [
        {
            "byteLength" : 67444,
            "uri" : "data:application/octet-stream;base64,"
        }
    ]
}
