{
    "asset" : {
        "version" : "2.0",
        "generator" : "Khronos glTF Blender I/O v1.2.20"
    },
    "scene" : 0,
    "scenes" : [
        {
            "nodes" : [
                0
            ],
            "name" : "Scene"
        }
    ],
    "nodes" : [
        {
            "name" : "Plant",
            "mesh" : 0
        }
    ],
    "materials" : [
        {
            "doubleSided" : true,
            "name" : "Plant",
            "pbrMetallicRoughness" : {
                "metallicFactor" : 0,
                "baseColorTexture" : {
                    "index" : 0,
                    "texCoord" : 0
                },
                "roughnessFactor" : 0.800000011920929
            }
        }
    ],
    "meshes" : [
        {
            "primitives" : [
                {
                    "attributes" : {
                        "TEXCOORD_0" : 0,
                        "NORMAL" : 1,
                        "POSITION" : 2
                    },
                    "indices" : 3,
                    "material" : 0
                }
            ],
            "name" : "Plant"
        }
    ],
    "textures" : [
        {
            "source" : 0
        }
    ],
    "images" : [
        {
            "bufferView" : 4,
            "name" : "plant1",
            "mimeType" : "image/png"
        }
    ],
    "accessors" : [
        {
            "componentType" : 5126,
            "bufferView" : 0,
            "type" : "VEC2",
            "count" : 89
        },
        {
            "componentType" : 5126,
            "bufferView" : 1,
            "type" : "VEC3",
            "count" : 89
        },
        {
            "componentType" : 5126,
            "max" : [
                3.28106689453125,
                7.84161376953125,
                2.7989501953125
            ],
            "min" : [
                -3.227630615234375,
                -0.25084495544433594,
                -4.2205810546875
            ],
            "bufferView" : 2,
            "type" : "VEC3",
            "count" : 89
        },
        {
            "componentType" : 5123,
            "bufferView" : 3,
            "type" : "SCALAR",
            "count" : 258
        }
    ],
    "bufferViews" : [
        {
            "byteLength" : 712,
            "buffer" : 0,
            "byteOffset" : 0
        },
        {
            "byteLength" : 1068,
            "buffer" : 0,
            "byteOffset" : 712
        },
        {
            "byteLength" : 1068,
            "buffer" : 0,
            "byteOffset" : 1780
        },
        {
            "byteLength" : 516,
            "buffer" : 0,
            "byteOffset" : 2848
        },
        {
            "byteLength" : 82140,
            "buffer" : 0,
            "byteOffset" : 3364
        }
    ],
    "buffers" : [
        {
            "uri" : "data:application/octet-stream;base64,",
            "byteLength" : 85504
        }
    ]
}
