{
    "asset" : {
        "generator" : "Khronos glTF Blender I/O v1.2.20",
        "version" : "2.0"
    },
    "scene" : 0,
    "scenes" : [
        {
            "nodes" : [
                0
            ],
            "name" : "Scene"
        }
    ],
    "nodes" : [
        {
            "mesh" : 0,
            "name" : "Portal"
        }
    ],
    "materials" : [
        {
            "name" : "Portal",
            "pbrMetallicRoughness" : {
                "baseColorTexture" : {
                    "index" : 0,
                    "texCoord" : 0
                },
                "roughnessFactor" : 0.20000000298023224,
                "metallicFactor" : 0
            }
        }
    ],
    "meshes" : [
        {
            "name" : "Portal",
            "primitives" : [
                {
                    "attributes" : {
                        "NORMAL" : 0,
                        "TEXCOORD_0" : 1,
                        "POSITION" : 2
                    },
                    "indices" : 3,
                    "material" : 0
                }
            ]
        }
    ],
    "textures" : [
        {
            "source" : 0
        }
    ],
    "images" : [
        {
            "name" : "portalDefault",
            "bufferView" : 4,
            "mimeType" : "image/jpeg"
        }
    ],
    "accessors" : [
        {
            "count" : 503,
            "componentType" : 5126,
            "type" : "VEC3",
            "bufferView" : 0
        },
        {
            "count" : 503,
            "componentType" : 5126,
            "type" : "VEC2",
            "bufferView" : 1
        },
        {
            "count" : 503,
            "min" : [
                -0.9999998211860657,
                -1,
                -1
            ],
            "bufferView" : 2,
            "max" : [
                1.000000238418579,
                1,
                1.0000003576278687
            ],
            "componentType" : 5126,
            "type" : "VEC3"
        },
        {
            "count" : 2880,
            "componentType" : 5123,
            "type" : "SCALAR",
            "bufferView" : 3
        }
    ],
    "bufferViews" : [
        {
            "byteLength" : 6036,
            "byteOffset" : 0,
            "buffer" : 0
        },
        {
            "byteLength" : 4024,
            "byteOffset" : 6036,
            "buffer" : 0
        },
        {
            "byteLength" : 6036,
            "byteOffset" : 10060,
            "buffer" : 0
        },
        {
            "byteLength" : 5760,
            "byteOffset" : 16096,
            "buffer" : 0
        },
        {
            "byteLength" : 49221,
            "byteOffset" : 21856,
            "buffer" : 0
        }
    ],
    "buffers" : [
        {
            "byteLength" : 71080,
            "uri" : "data:application/octet-stream;base64,"
        }
    ]
}
