{
    "asset" : {
        "version" : "2.0",
        "generator" : "Khronos glTF Blender I/O v1.2.20"
    },
    "scene" : 0,
    "scenes" : [
        {
            "nodes" : [
                0
            ],
            "name" : "Scene"
        }
    ],
    "nodes" : [
        {
            "name" : "Pumpkin",
            "mesh" : 0
        }
    ],
    "materials" : [
        {
            "name" : "Pumpkin",
            "pbrMetallicRoughness" : {
                "metallicFactor" : 0,
                "baseColorTexture" : {
                    "index" : 0,
                    "texCoord" : 0
                },
                "roughnessFactor" : 0.800000011920929
            }
        }
    ],
    "meshes" : [
        {
            "name" : "Pumpkin",
            "primitives" : [
                {
                    "material" : 0,
                    "indices" : 3,
                    "attributes" : {
                        "TEXCOORD_0" : 0,
                        "NORMAL" : 1,
                        "POSITION" : 2
                    }
                }
            ]
        }
    ],
    "textures" : [
        {
            "source" : 0
        }
    ],
    "images" : [
        {
            "bufferView" : 4,
            "name" : "pumpkinTex",
            "mimeType" : "image/jpeg"
        }
    ],
    "accessors" : [
        {
            "type" : "VEC2",
            "bufferView" : 0,
            "componentType" : 5126,
            "count" : 662
        },
        {
            "type" : "VEC3",
            "bufferView" : 1,
            "componentType" : 5126,
            "count" : 662
        },
        {
            "type" : "VEC3",
            "min" : [
                -1.562042236328125,
                -0.06847858428955078,
                -1.63372802734375
            ],
            "bufferView" : 2,
            "max" : [
                1.4870758056640625,
                3.080413818359375,
                1.440765380859375
            ],
            "componentType" : 5126,
            "count" : 662
        },
        {
            "type" : "SCALAR",
            "bufferView" : 3,
            "componentType" : 5123,
            "count" : 2220
        }
    ],
    "bufferViews" : [
        {
            "byteLength" : 5296,
            "byteOffset" : 0,
            "buffer" : 0
        },
        {
            "byteLength" : 7944,
            "byteOffset" : 5296,
            "buffer" : 0
        },
        {
            "byteLength" : 7944,
            "byteOffset" : 13240,
            "buffer" : 0
        },
        {
            "byteLength" : 4440,
            "byteOffset" : 21184,
            "buffer" : 0
        },
        {
            "byteLength" : 1427,
            "byteOffset" : 25624,
            "buffer" : 0
        }
    ],
    "buffers" : [
        {
            "byteLength" : 27052,
            "uri" : "data:application/octet-stream;base64,"
        }
    ]
}
