{
    "asset" : {
        "generator" : "Khronos glTF Blender I/O v1.2.20",
        "version" : "2.0"
    },
    "scene" : 0,
    "scenes" : [
        {
            "nodes" : [
                0
            ],
            "name" : "Scene"
        }
    ],
    "nodes" : [
        {
            "name" : "Rock",
            "mesh" : 0
        }
    ],
    "materials" : [
        {
            "pbrMetallicRoughness" : {
                "roughnessFactor" : 0.800000011920929,
                "metallicFactor" : 0,
                "baseColorTexture" : {
                    "texCoord" : 0,
                    "index" : 0
                }
            },
            "name" : "Rock"
        }
    ],
    "meshes" : [
        {
            "primitives" : [
                {
                    "attributes" : {
                        "POSITION" : 0,
                        "NORMAL" : 1,
                        "TEXCOORD_0" : 2
                    },
                    "material" : 0,
                    "indices" : 3
                }
            ],
            "name" : "Rock"
        }
    ],
    "textures" : [
        {
            "source" : 0
        }
    ],
    "images" : [
        {
            "bufferView" : 4,
            "name" : "rockTex",
            "mimeType" : "image/jpeg"
        }
    ],
    "accessors" : [
        {
            "componentType" : 5126,
            "type" : "VEC3",
            "count" : 26,
            "bufferView" : 0,
            "max" : [
                20.190980911254883,
                14.809568405151367,
                21.75547981262207
            ],
            "min" : [
                -17.868528366088867,
                -2.823281764984131,
                -18.896583557128906
            ]
        },
        {
            "componentType" : 5126,
            "count" : 26,
            "type" : "VEC3",
            "bufferView" : 1
        },
        {
            "componentType" : 5126,
            "count" : 26,
            "type" : "VEC2",
            "bufferView" : 2
        },
        {
            "componentType" : 5123,
            "count" : 120,
            "type" : "SCALAR",
            "bufferView" : 3
        }
    ],
    "bufferViews" : [
        {
            "buffer" : 0,
            "byteLength" : 312,
            "byteOffset" : 0
        },
        {
            "buffer" : 0,
            "byteLength" : 312,
            "byteOffset" : 312
        },
        {
            "buffer" : 0,
            "byteLength" : 208,
            "byteOffset" : 624
        },
        {
            "buffer" : 0,
            "byteLength" : 240,
            "byteOffset" : 832
        },
        {
            "buffer" : 0,
            "byteLength" : 25540,
            "byteOffset" : 1072
        }
    ],
    "buffers" : [
        {
            "byteLength" : 26612,
            "uri" : "data:application/octet-stream;base64,"
        }
    ]
}
