{
    "asset" : {
        "generator" : "Khronos glTF Blender I/O v1.2.20",
        "version" : "2.0"
    },
    "scene" : 0,
    "scenes" : [
        {
            "nodes" : [
                1
            ],
            "name" : "Scene"
        }
    ],
    "nodes" : [
        {
            "mesh" : 0,
            "name" : "SavannahTreeLeaves",
            "translation" : [
                0,
                0,
                -0.00027801841497421265
            ]
        },
        {
            "mesh" : 1,
            "children" : [
                0
            ],
            "translation" : [
                0,
                0,
                -0.00027801841497421265
            ],
            "name" : "SavannahTree"
        }
    ],
    "materials" : [
        {
            "pbrMetallicRoughness" : {
                "roughnessFactor" : 0.20000000298023224,
                "metallicFactor" : 0,
                "baseColorTexture" : {
                    "texCoord" : 0,
                    "index" : 0
                }
            },
            "name" : "Leaves",
            "doubleSided" : true
        },
        {
            "pbrMetallicRoughness" : {
                "roughnessFactor" : 0.800000011920929,
                "metallicFactor" : 0,
                "baseColorTexture" : {
                    "texCoord" : 0,
                    "index" : 1
                }
            },
            "name" : "Bark"
        }
    ],
    "meshes" : [
        {
            "primitives" : [
                {
                    "attributes" : {
                        "TEXCOORD_0" : 0,
                        "TEXCOORD_1" : 1,
                        "POSITION" : 2,
                        "NORMAL" : 3
                    },
                    "indices" : 4,
                    "material" : 0
                }
            ],
            "name" : "SavannahTree.001"
        },
        {
            "primitives" : [
                {
                    "attributes" : {
                        "TEXCOORD_0" : 5,
                        "TEXCOORD_1" : 6,
                        "POSITION" : 7,
                        "NORMAL" : 8
                    },
                    "indices" : 9,
                    "material" : 1
                }
            ],
            "name" : "SavannahTree"
        }
    ],
    "textures" : [
        {
            "source" : 0
        },
        {
            "source" : 1
        }
    ],
    "images" : [
        {
            "name" : "acaciaLeaf",
            "bufferView" : 5,
            "mimeType" : "image/png"
        },
        {
            "name" : "acaciaBark",
            "bufferView" : 11,
            "mimeType" : "image/jpeg"
        }
    ],
    "accessors" : [
        {
            "componentType" : 5126,
            "count" : 136,
            "type" : "VEC2",
            "bufferView" : 0
        },
        {
            "componentType" : 5126,
            "count" : 136,
            "type" : "VEC2",
            "bufferView" : 1
        },
        {
            "count" : 136,
            "bufferView" : 2,
            "min" : [
                -164.99169921875,
                102.67800903320312,
                -164.12677001953125
            ],
            "componentType" : 5126,
            "max" : [
                150.36431884765625,
                316.6419372558594,
                165.88352966308594
            ],
            "type" : "VEC3"
        },
        {
            "componentType" : 5126,
            "count" : 136,
            "type" : "VEC3",
            "bufferView" : 3
        },
        {
            "componentType" : 5123,
            "count" : 204,
            "type" : "SCALAR",
            "bufferView" : 4
        },
        {
            "componentType" : 5126,
            "count" : 1422,
            "type" : "VEC2",
            "bufferView" : 6
        },
        {
            "componentType" : 5126,
            "count" : 1422,
            "type" : "VEC2",
            "bufferView" : 7
        },
        {
            "count" : 1422,
            "bufferView" : 8,
            "min" : [
                -144.14122009277344,
                -2.2855570316314697,
                -144.34474182128906
            ],
            "componentType" : 5126,
            "max" : [
                120.27883911132812,
                289.93511962890625,
                141.87046813964844
            ],
            "type" : "VEC3"
        },
        {
            "componentType" : 5126,
            "count" : 1422,
            "type" : "VEC3",
            "bufferView" : 9
        },
        {
            "componentType" : 5123,
            "count" : 1422,
            "type" : "SCALAR",
            "bufferView" : 10
        }
    ],
    "bufferViews" : [
        {
            "buffer" : 0,
            "byteLength" : 1088,
            "byteOffset" : 0
        },
        {
            "buffer" : 0,
            "byteLength" : 1088,
            "byteOffset" : 1088
        },
        {
            "buffer" : 0,
            "byteLength" : 1632,
            "byteOffset" : 2176
        },
        {
            "buffer" : 0,
            "byteLength" : 1632,
            "byteOffset" : 3808
        },
        {
            "buffer" : 0,
            "byteLength" : 408,
            "byteOffset" : 5440
        },
        {
            "buffer" : 0,
            "byteLength" : 186514,
            "byteOffset" : 5848
        },
        {
            "buffer" : 0,
            "byteLength" : 11376,
            "byteOffset" : 192364
        },
        {
            "buffer" : 0,
            "byteLength" : 11376,
            "byteOffset" : 203740
        },
        {
            "buffer" : 0,
            "byteLength" : 17064,
            "byteOffset" : 215116
        },
        {
            "buffer" : 0,
            "byteLength" : 17064,
            "byteOffset" : 232180
        },
        {
            "buffer" : 0,
            "byteLength" : 2844,
            "byteOffset" : 249244
        },
        {
            "buffer" : 0,
            "byteLength" : 115093,
            "byteOffset" : 252088
        }
    ],
    "buffers" : [
        {
            "byteLength" : 367184,
            "uri" : "data:application/octet-stream;base64,"
        }
    ]
}
