{
    "asset" : {
        "version" : "2.0",
        "generator" : "Khronos glTF Blender I/O v1.2.20"
    },
    "scene" : 0,
    "scenes" : [
        {
            "nodes" : [
                0
            ],
            "name" : "Scene"
        }
    ],
    "nodes" : [
        {
            "name" : "Shroom2-3",
            "mesh" : 0
        }
    ],
    "materials" : [
        {
            "pbrMetallicRoughness" : {
                "roughnessFactor" : 0.800000011920929,
                "metallicFactor" : 0,
                "baseColorTexture" : {
                    "texCoord" : 0,
                    "index" : 0
                }
            },
            "name" : "Shrrom2-3"
        }
    ],
    "meshes" : [
        {
            "name" : "Shroom2-3",
            "primitives" : [
                {
                    "indices" : 3,
                    "attributes" : {
                        "POSITION" : 0,
                        "NORMAL" : 1,
                        "TEXCOORD_0" : 2
                    },
                    "material" : 0
                }
            ]
        }
    ],
    "textures" : [
        {
            "source" : 0
        }
    ],
    "images" : [
        {
            "name" : "shroom2",
            "bufferView" : 4,
            "mimeType" : "image/png"
        }
    ],
    "accessors" : [
        {
            "max" : [
                1.515838623046875,
                1.5432586669921875,
                1.323944091796875
            ],
            "count" : 653,
            "min" : [
                -1.2307891845703125,
                -0.014851570129394531,
                -1.5951080322265625
            ],
            "type" : "VEC3",
            "componentType" : 5126,
            "bufferView" : 0
        },
        {
            "type" : "VEC3",
            "componentType" : 5126,
            "bufferView" : 1,
            "count" : 653
        },
        {
            "type" : "VEC2",
            "componentType" : 5126,
            "bufferView" : 2,
            "count" : 653
        },
        {
            "type" : "SCALAR",
            "componentType" : 5123,
            "bufferView" : 3,
            "count" : 2664
        }
    ],
    "bufferViews" : [
        {
            "buffer" : 0,
            "byteOffset" : 0,
            "byteLength" : 7836
        },
        {
            "buffer" : 0,
            "byteOffset" : 7836,
            "byteLength" : 7836
        },
        {
            "buffer" : 0,
            "byteOffset" : 15672,
            "byteLength" : 5224
        },
        {
            "buffer" : 0,
            "byteOffset" : 20896,
            "byteLength" : 5328
        },
        {
            "buffer" : 0,
            "byteOffset" : 26224,
            "byteLength" : 128922
        }
    ],
    "buffers" : [
        {
            "uri" : "data:application/octet-stream;base64,",
            "byteLength" : 155148
        }
    ]
}
