{
    "asset" : {
        "version" : "2.0",
        "generator" : "Khronos glTF Blender I/O v1.2.20"
    },
    "scene" : 0,
    "scenes" : [
        {
            "nodes" : [
                0
            ],
            "name" : "Scene"
        }
    ],
    "nodes" : [
        {
            "mesh" : 0,
            "name" : "Shroom1-3"
        }
    ],
    "materials" : [
        {
            "name" : "Shroom1-3.001",
            "pbrMetallicRoughness" : {
                "baseColorTexture" : {
                    "index" : 0,
                    "texCoord" : 0
                },
                "roughnessFactor" : 0.800000011920929,
                "metallicFactor" : 0
            }
        }
    ],
    "meshes" : [
        {
            "name" : "Shroom1-3",
            "primitives" : [
                {
                    "attributes" : {
                        "TEXCOORD_0" : 0,
                        "POSITION" : 1,
                        "NORMAL" : 2
                    },
                    "material" : 0,
                    "indices" : 3
                }
            ]
        }
    ],
    "textures" : [
        {
            "source" : 0
        }
    ],
    "images" : [
        {
            "name" : "shroom1",
            "mimeType" : "image/png",
            "bufferView" : 4
        }
    ],
    "accessors" : [
        {
            "type" : "VEC2",
            "componentType" : 5126,
            "count" : 836,
            "bufferView" : 0
        },
        {
            "type" : "VEC3",
            "min" : [
                -2.345855712890625,
                -0.014851689338684082,
                -2.2396087646484375
            ],
            "count" : 836,
            "componentType" : 5126,
            "max" : [
                2.4201202392578125,
                2.199005126953125,
                2.3702239990234375
            ],
            "bufferView" : 1
        },
        {
            "type" : "VEC3",
            "componentType" : 5126,
            "count" : 836,
            "bufferView" : 2
        },
        {
            "type" : "SCALAR",
            "componentType" : 5123,
            "count" : 2952,
            "bufferView" : 3
        }
    ],
    "bufferViews" : [
        {
            "byteOffset" : 0,
            "buffer" : 0,
            "byteLength" : 6688
        },
        {
            "byteOffset" : 6688,
            "buffer" : 0,
            "byteLength" : 10032
        },
        {
            "byteOffset" : 16720,
            "buffer" : 0,
            "byteLength" : 10032
        },
        {
            "byteOffset" : 26752,
            "buffer" : 0,
            "byteLength" : 5904
        },
        {
            "byteOffset" : 32656,
            "buffer" : 0,
            "byteLength" : 108659
        }
    ],
    "buffers" : [
        {
            "uri" : "data:application/octet-stream;base64,",
            "byteLength" : 141316
        }
    ]
}
