{
    "asset" : {
        "version" : "2.0",
        "generator" : "Khronos glTF Blender I/O v1.2.20"
    },
    "scene" : 0,
    "scenes" : [
        {
            "name" : "Scene",
            "nodes" : [
                0
            ]
        }
    ],
    "nodes" : [
        {
            "mesh" : 0,
            "name" : "Shroom2-2"
        }
    ],
    "materials" : [
        {
            "pbrMetallicRoughness" : {
                "roughnessFactor" : 0.800000011920929,
                "baseColorTexture" : {
                    "index" : 0,
                    "texCoord" : 0
                },
                "metallicFactor" : 0
            },
            "name" : "Shroom2-2.001"
        }
    ],
    "meshes" : [
        {
            "name" : "Shroom2-2",
            "primitives" : [
                {
                    "attributes" : {
                        "NORMAL" : 0,
                        "POSITION" : 1,
                        "TEXCOORD_0" : 2
                    },
                    "indices" : 3,
                    "material" : 0
                }
            ]
        }
    ],
    "textures" : [
        {
            "source" : 0
        }
    ],
    "images" : [
        {
            "mimeType" : "image/png",
            "bufferView" : 4,
            "name" : "shroom2"
        }
    ],
    "accessors" : [
        {
            "componentType" : 5126,
            "bufferView" : 0,
            "count" : 322,
            "type" : "VEC3"
        },
        {
            "max" : [
                1.4972686767578125,
                1.2131118774414062,
                0.5284271240234375
            ],
            "bufferView" : 1,
            "count" : 322,
            "type" : "VEC3",
            "componentType" : 5126,
            "min" : [
                -1.142364501953125,
                -0.01485145092010498,
                -1.345916748046875
            ]
        },
        {
            "componentType" : 5126,
            "bufferView" : 2,
            "count" : 322,
            "type" : "VEC2"
        },
        {
            "componentType" : 5123,
            "bufferView" : 3,
            "count" : 1224,
            "type" : "SCALAR"
        }
    ],
    "bufferViews" : [
        {
            "byteLength" : 3864,
            "byteOffset" : 0,
            "buffer" : 0
        },
        {
            "byteLength" : 3864,
            "byteOffset" : 3864,
            "buffer" : 0
        },
        {
            "byteLength" : 2576,
            "byteOffset" : 7728,
            "buffer" : 0
        },
        {
            "byteLength" : 2448,
            "byteOffset" : 10304,
            "buffer" : 0
        },
        {
            "byteLength" : 128922,
            "byteOffset" : 12752,
            "buffer" : 0
        }
    ],
    "buffers" : [
        {
            "byteLength" : 141676,
            "uri" : "data:application/octet-stream;base64,"
        }
    ]
}
