{
    "asset" : {
        "version" : "2.0",
        "generator" : "Khronos glTF Blender I/O v1.2.20"
    },
    "scene" : 0,
    "scenes" : [
        {
            "nodes" : [
                0
            ],
            "name" : "Scene"
        }
    ],
    "nodes" : [
        {
            "mesh" : 0,
            "name" : "Shrub"
        }
    ],
    "materials" : [
        {
            "pbrMetallicRoughness" : {
                "roughnessFactor" : 0.20000000298023224,
                "baseColorTexture" : {
                    "index" : 0,
                    "texCoord" : 0
                },
                "metallicFactor" : 0
            },
            "name" : "Shrub",
            "doubleSided" : true
        }
    ],
    "meshes" : [
        {
            "primitives" : [
                {
                    "material" : 0,
                    "indices" : 3,
                    "attributes" : {
                        "POSITION" : 0,
                        "TEXCOORD_0" : 1,
                        "NORMAL" : 2
                    }
                }
            ],
            "name" : "Shrub"
        }
    ],
    "textures" : [
        {
            "source" : 0
        }
    ],
    "images" : [
        {
            "mimeType" : "image/png",
            "bufferView" : 4,
            "name" : "shrubLeaves"
        }
    ],
    "accessors" : [
        {
            "type" : "VEC3",
            "max" : [
                7.0054931640625,
                4.989715576171875,
                7.4976806640625
            ],
            "count" : 440,
            "bufferView" : 0,
            "min" : [
                -6.32879638671875,
                -2.632476806640625,
                -6.3837890625
            ],
            "componentType" : 5126
        },
        {
            "type" : "VEC2",
            "bufferView" : 1,
            "count" : 440,
            "componentType" : 5126
        },
        {
            "type" : "VEC3",
            "bufferView" : 2,
            "count" : 440,
            "componentType" : 5126
        },
        {
            "type" : "SCALAR",
            "bufferView" : 3,
            "count" : 660,
            "componentType" : 5123
        }
    ],
    "bufferViews" : [
        {
            "byteLength" : 5280,
            "byteOffset" : 0,
            "buffer" : 0
        },
        {
            "byteLength" : 3520,
            "byteOffset" : 5280,
            "buffer" : 0
        },
        {
            "byteLength" : 5280,
            "byteOffset" : 8800,
            "buffer" : 0
        },
        {
            "byteLength" : 1320,
            "byteOffset" : 14080,
            "buffer" : 0
        },
        {
            "byteLength" : 88476,
            "byteOffset" : 15400,
            "buffer" : 0
        }
    ],
    "buffers" : [
        {
            "byteLength" : 103876,
            "uri" : "data:application/octet-stream;base64,"
        }
    ]
}
