{
    "asset" : {
        "version" : "2.0",
        "generator" : "Khronos glTF Blender I/O v1.2.20"
    },
    "scene" : 0,
    "scenes" : [
        {
            "nodes" : [
                0
            ],
            "name" : "Scene"
        }
    ],
    "nodes" : [
        {
            "mesh" : 0,
            "name" : "Sign"
        }
    ],
    "materials" : [
        {
            "pbrMetallicRoughness" : {
                "roughnessFactor" : 0.20000000298023224,
                "metallicFactor" : 0,
                "baseColorFactor" : [
                    0.800000011920929,
                    0.800000011920929,
                    0.800000011920929,
                    1
                ]
            },
            "name" : "Sign"
        }
    ],
    "meshes" : [
        {
            "primitives" : [
                {
                    "attributes" : {
                        "POSITION" : 0,
                        "TEXCOORD_0" : 1,
                        "NORMAL" : 2
                    },
                    "indices" : 3,
                    "material" : 0
                }
            ],
            "name" : "Sign"
        }
    ],
    "accessors" : [
        {
            "max" : [
                1.4703521728515625,
                1.3073883056640625,
                -0.017882227897644043
            ],
            "bufferView" : 0,
            "count" : 32,
            "type" : "VEC3",
            "componentType" : 5126,
            "min" : [
                -1.456817626953125,
                -0.1926136016845703,
                -0.10327434539794922
            ]
        },
        {
            "bufferView" : 1,
            "componentType" : 5126,
            "count" : 32,
            "type" : "VEC2"
        },
        {
            "bufferView" : 2,
            "componentType" : 5126,
            "count" : 32,
            "type" : "VEC3"
        },
        {
            "bufferView" : 3,
            "componentType" : 5123,
            "count" : 36,
            "type" : "SCALAR"
        }
    ],
    "bufferViews" : [
        {
            "byteLength" : 384,
            "buffer" : 0,
            "byteOffset" : 0
        },
        {
            "byteLength" : 256,
            "buffer" : 0,
            "byteOffset" : 384
        },
        {
            "byteLength" : 384,
            "buffer" : 0,
            "byteOffset" : 640
        },
        {
            "byteLength" : 72,
            "buffer" : 0,
            "byteOffset" : 1024
        }
    ],
    "buffers" : [
        {
            "byteLength" : 1096,
            "uri" : "data:application/octet-stream;base64,"
        }
    ]
}
