{
    "asset" : {
        "generator" : "Khronos glTF Blender I/O v1.2.20",
        "version" : "2.0"
    },
    "scene" : 0,
    "scenes" : [
        {
            "name" : "Scene",
            "nodes" : [
                1
            ]
        }
    ],
    "nodes" : [
        {
            "name" : "TreeLeaves",
            "mesh" : 0
        },
        {
            "name" : "Tree",
            "mesh" : 1,
            "children" : [
                0
            ]
        }
    ],
    "materials" : [
        {
            "name" : "Leaves",
            "pbrMetallicRoughness" : {
                "roughnessFactor" : 0.20000000298023224,
                "baseColorTexture" : {
                    "texCoord" : 0,
                    "index" : 0
                },
                "metallicFactor" : 0
            },
            "doubleSided" : true
        },
        {
            "name" : "Bark",
            "pbrMetallicRoughness" : {
                "roughnessFactor" : 0.800000011920929,
                "baseColorTexture" : {
                    "texCoord" : 0,
                    "index" : 1
                },
                "metallicFactor" : 0
            }
        }
    ],
    "meshes" : [
        {
            "name" : "Tree.001",
            "primitives" : [
                {
                    "material" : 0,
                    "attributes" : {
                        "TEXCOORD_0" : 0,
                        "NORMAL" : 1,
                        "POSITION" : 2
                    },
                    "indices" : 3
                }
            ]
        },
        {
            "name" : "Tree",
            "primitives" : [
                {
                    "material" : 1,
                    "attributes" : {
                        "TEXCOORD_0" : 4,
                        "NORMAL" : 5,
                        "POSITION" : 6
                    },
                    "indices" : 7
                }
            ]
        }
    ],
    "textures" : [
        {
            "source" : 0
        },
        {
            "source" : 1
        }
    ],
    "images" : [
        {
            "name" : "acaciaLeaf",
            "bufferView" : 4,
            "mimeType" : "image/png"
        },
        {
            "name" : "acaciaBark",
            "bufferView" : 9,
            "mimeType" : "image/jpeg"
        }
    ],
    "accessors" : [
        {
            "type" : "VEC2",
            "count" : 132,
            "bufferView" : 0,
            "componentType" : 5126
        },
        {
            "type" : "VEC3",
            "count" : 132,
            "bufferView" : 1,
            "componentType" : 5126
        },
        {
            "type" : "VEC3",
            "min" : [
                -139.0517578125,
                56.28076171875,
                -131.7607421875
            ],
            "count" : 132,
            "bufferView" : 2,
            "max" : [
                155.7939453125,
                192.80078125,
                123.564453125
            ],
            "componentType" : 5126
        },
        {
            "type" : "SCALAR",
            "count" : 132,
            "bufferView" : 3,
            "componentType" : 5123
        },
        {
            "type" : "VEC2",
            "count" : 477,
            "bufferView" : 5,
            "componentType" : 5126
        },
        {
            "type" : "VEC3",
            "count" : 477,
            "bufferView" : 6,
            "componentType" : 5126
        },
        {
            "type" : "VEC3",
            "min" : [
                -55.0537109375,
                -3.0517549021169543e-07,
                -54.376953125
            ],
            "count" : 477,
            "bufferView" : 7,
            "max" : [
                70.69140625,
                143.41796875,
                44.6044921875
            ],
            "componentType" : 5126
        },
        {
            "type" : "SCALAR",
            "count" : 1035,
            "bufferView" : 8,
            "componentType" : 5123
        }
    ],
    "bufferViews" : [
        {
            "buffer" : 0,
            "byteOffset" : 0,
            "byteLength" : 1056
        },
        {
            "buffer" : 0,
            "byteOffset" : 1056,
            "byteLength" : 1584
        },
        {
            "buffer" : 0,
            "byteOffset" : 2640,
            "byteLength" : 1584
        },
        {
            "buffer" : 0,
            "byteOffset" : 4224,
            "byteLength" : 264
        },
        {
            "buffer" : 0,
            "byteOffset" : 4488,
            "byteLength" : 604635
        },
        {
            "buffer" : 0,
            "byteOffset" : 609124,
            "byteLength" : 3816
        },
        {
            "buffer" : 0,
            "byteOffset" : 612940,
            "byteLength" : 5724
        },
        {
            "buffer" : 0,
            "byteOffset" : 618664,
            "byteLength" : 5724
        },
        {
            "buffer" : 0,
            "byteOffset" : 624388,
            "byteLength" : 2070
        },
        {
            "buffer" : 0,
            "byteOffset" : 626460,
            "byteLength" : 115093
        }
    ],
    "buffers" : [
        {
            "uri" : "data:application/octet-stream;base64,",
            "byteLength" : 741556
        }
    ]
}
