{
    "asset" : {
        "generator" : "Khronos glTF Blender I/O v1.2.20",
        "version" : "2.0"
    },
    "scene" : 0,
    "scenes" : [
        {
            "nodes" : [
                0
            ],
            "name" : "Scene"
        }
    ],
    "nodes" : [
        {
            "mesh" : 0,
            "name" : "Waterfall"
        }
    ],
    "materials" : [
        {
            "pbrMetallicRoughness" : {
                "roughnessFactor" : 0.20000000298023224,
                "baseColorTexture" : {
                    "texCoord" : 0,
                    "index" : 0
                },
                "metallicFactor" : 0
            },
            "doubleSided" : true,
            "name" : "Waterfall"
        }
    ],
    "meshes" : [
        {
            "primitives" : [
                {
                    "material" : 0,
                    "indices" : 3,
                    "attributes" : {
                        "TEXCOORD_0" : 0,
                        "POSITION" : 1,
                        "NORMAL" : 2
                    }
                }
            ],
            "name" : "Waterfall"
        }
    ],
    "textures" : [
        {
            "source" : 0
        }
    ],
    "images" : [
        {
            "mimeType" : "image/png",
            "bufferView" : 4,
            "name" : "waterfall"
        }
    ],
    "accessors" : [
        {
            "count" : 12,
            "type" : "VEC2",
            "componentType" : 5126,
            "bufferView" : 0
        },
        {
            "count" : 12,
            "max" : [
                62.3515625,
                1.8807830810546875,
                48.81298828125
            ],
            "type" : "VEC3",
            "bufferView" : 1,
            "min" : [
                -62.3515625,
                -252.046875,
                -48.787109375
            ],
            "componentType" : 5126
        },
        {
            "count" : 12,
            "type" : "VEC3",
            "componentType" : 5126,
            "bufferView" : 2
        },
        {
            "count" : 30,
            "type" : "SCALAR",
            "componentType" : 5123,
            "bufferView" : 3
        }
    ],
    "bufferViews" : [
        {
            "byteLength" : 96,
            "buffer" : 0,
            "byteOffset" : 0
        },
        {
            "byteLength" : 144,
            "buffer" : 0,
            "byteOffset" : 96
        },
        {
            "byteLength" : 144,
            "buffer" : 0,
            "byteOffset" : 240
        },
        {
            "byteLength" : 60,
            "buffer" : 0,
            "byteOffset" : 384
        },
        {
            "byteLength" : 61241,
            "buffer" : 0,
            "byteOffset" : 444
        }
    ],
    "buffers" : [
        {
            "byteLength" : 61688,
            "uri" : "data:application/octet-stream;base64,"
        }
    ]
}
