{
    "asset" : {
        "generator" : "Khronos glTF Blender I/O v1.2.20",
        "version" : "2.0"
    },
    "scene" : 0,
    "scenes" : [
        {
            "nodes" : [
                0
            ],
            "name" : "Scene"
        }
    ],
    "nodes" : [
        {
            "mesh" : 0,
            "name" : "Aureola"
        }
    ],
    "materials" : [
        {
            "doubleSided" : true,
            "pbrMetallicRoughness" : {
                "baseColorTexture" : {
                    "index" : 0,
                    "texCoord" : 0
                },
                "roughnessFactor" : 0.5,
                "metallicFactor" : 0
            },
            "name" : "Aureola"
        }
    ],
    "meshes" : [
        {
            "primitives" : [
                {
                    "indices" : 3,
                    "attributes" : {
                        "NORMAL" : 0,
                        "TEXCOORD_0" : 1,
                        "POSITION" : 2
                    },
                    "material" : 0
                }
            ],
            "name" : "Plane"
        }
    ],
    "textures" : [
        {
            "source" : 0
        }
    ],
    "images" : [
        {
            "bufferView" : 4,
            "mimeType" : "image/png",
            "name" : "aureola"
        }
    ],
    "accessors" : [
        {
            "count" : 4,
            "componentType" : 5126,
            "bufferView" : 0,
            "type" : "VEC3"
        },
        {
            "count" : 4,
            "componentType" : 5126,
            "bufferView" : 1,
            "type" : "VEC2"
        },
        {
            "count" : 4,
            "bufferView" : 2,
            "min" : [
                -10,
                0,
                -10
            ],
            "max" : [
                10,
                0,
                10
            ],
            "componentType" : 5126,
            "type" : "VEC3"
        },
        {
            "count" : 6,
            "componentType" : 5123,
            "bufferView" : 3,
            "type" : "SCALAR"
        }
    ],
    "bufferViews" : [
        {
            "buffer" : 0,
            "byteLength" : 48,
            "byteOffset" : 0
        },
        {
            "buffer" : 0,
            "byteLength" : 32,
            "byteOffset" : 48
        },
        {
            "buffer" : 0,
            "byteLength" : 48,
            "byteOffset" : 80
        },
        {
            "buffer" : 0,
            "byteLength" : 12,
            "byteOffset" : 128
        },
        {
            "buffer" : 0,
            "byteLength" : 23886,
            "byteOffset" : 140
        }
    ],
    "buffers" : [
        {
            "uri" : "data:application/octet-stream;base64,",
            "byteLength" : 24028
        }
    ]
}
